<svg xmlns="http://www.w3.org/2000/svg">
<defs>
<font id="CloneMachine" horiz-adv-x="1100" >
  <font-face 
    font-family="Clone Machine"
    font-weight="400"
    font-stretch="normal"
    units-per-em="2048"
    panose-1="2 0 5 0 0 0 0 0 0 0"
    ascent="1638"
    descent="-410"
    x-height="1000"
    cap-height="1400"
    bbox="-58 -200 1496 1600"
    underline-thickness="150"
    underline-position="-292"
    unicode-range="U+001D-007E"
  />
<missing-glyph horiz-adv-x="1600" 
d="M776 1396h32q335 0 564 -300q124 -187 124 -380v-40q0 -314 -288 -548q-194 -128 -388 -128h-32q-335 0 -564 300q-124 187 -124 380v40q0 314 288 548q194 128 388 128zM196 880h4q688 -4 1084 -4h116q-94 264 -292 364q-138 84 -296 84h-32q-268 0 -468 -228
q-88 -113 -116 -216zM764 1252l28 -28l32 28q5 0 32 -32q-6 0 -28 -28v-4q0 -6 28 -28q0 6 28 28h4q6 0 28 -28v-4q0 -6 -28 -28h-4l-32 28l-24 -28q28 -30 28 -36l-32 -28l-32 28l-32 -28l-28 32l28 32q-25 28 -28 28l-32 -28q-5 0 -32 32l32 28l32 -28l28 32q-6 0 -28 28
q0 5 32 32zM792 1220l-28 -32l32 -28q0 2 24 28v4q0 6 -28 28zM792 1156l-28 -32q26 -24 28 -24q6 0 28 28q0 6 -28 28zM420 1008h12l28 -8v-8l-8 -12q-22 4 -32 4q-16 -4 -16 -24q0 -17 20 -24q26 8 28 8l12 -16q-13 -10 -36 -16q-52 9 -52 48q8 48 44 48zM472 1008h20
q8 -1 8 -8v-28h28v36h28v-92h-28v32h-28v-32h-28v92zM576 1008h64v-24h-44v-12h44v-16q0 -8 -8 -8l-8 4l-8 -4l-20 4v-12h40q8 -1 8 -8v-16h-76v84q1 8 8 8zM700 1008q52 -7 52 -44l-8 -32q8 -1 8 -8q0 -6 -16 -16q-10 8 -12 8q-22 -4 -32 -4q-33 0 -44 48q0 48 52 48z
M768 1008h12q8 -1 8 -8v-40q3 -24 12 -24h8q6 0 12 12v52l4 8l8 -4h4l8 4l4 -8v-48q-5 -40 -40 -40h-8q-36 0 -40 48v40q1 8 8 8zM864 1008h8l24 -4q8 4 12 4q8 -4 12 -4q8 4 12 4v-20q0 -8 -8 -8q-7 4 -16 4v-4l-8 4h-12v-12h44v-16q0 -8 -8 -8h-36v-12h12q4 0 4 4l8 -4h8
q4 0 4 4q8 -4 12 -4v-20h-20l-24 -4q-7 4 -20 4v-4q-8 4 -12 4v72zM952 1008l28 -4v4q48 -7 48 -32q-3 -28 -20 -28l24 -32l-8 -4h-16q-3 0 -32 32h-4v-16l4 -8l-8 -4h-24v4q0 8 4 8l-4 28l4 40h-4q4 12 8 12zM1040 1004h72v-16q0 -8 -8 -8h-36v-8h40v-24h-40v-12h44v-16

<glyph glyph-name=".notdef" horiz-adv-x="1600" 
d="M776 1396h32q335 0 564 -300q124 -187 124 -380v-40q0 -314 -288 -548q-194 -128 -388 -128h-32q-335 0 -564 300q-124 187 -124 380v40q0 314 288 548q194 128 388 128zM196 880h4q688 -4 1084 -4h116q-94 264 -292 364q-138 84 -296 84h-32q-268 0 -468 -228
q-88 -113 -116 -216zM764 1252l28 -28l32 28q5 0 32 -32q-6 0 -28 -28v-4q0 -6 28 -28q0 6 28 28h4q6 0 28 -28v-4q0 -6 -28 -28h-4l-32 28l-24 -28q28 -30 28 -36l-32 -28l-32 28l-32 -28l-28 32l28 32q-25 28 -28 28l-32 -28q-5 0 -32 32l32 28l32 -28l28 32q-6 0 -28 28
q0 5 32 32zM792 1220l-28 -32l32 -28q0 2 24 28v4q0 6 -28 28zM792 1156l-28 -32q26 -24 28 -24q6 0 28 28q0 6 -28 28zM420 1008h12l28 -8v-8l-8 -12q-22 4 -32 4q-16 -4 -16 -24q0 -17 20 -24q26 8 28 8l12 -16q-13 -10 -36 -16q-52 9 -52 48q8 48 44 48zM472 1008h20
q8 -1 8 -8v-28h28v36h28v-92h-28v32h-28v-32h-28v92zM576 1008h64v-24h-44v-12h44v-16q0 -8 -8 -8l-8 4l-8 -4l-20 4v-12h40q8 -1 8 -8v-16h-76v84q1 8 8 8zM700 1008q52 -7 52 -44l-8 -32q8 -1 8 -8q0 -6 -16 -16q-10 8 -12 8q-22 -4 -32 -4q-33 0 -44 48q0 48 52 48z
M768 1008h12q8 -1 8 -8v-40q3 -24 12 -24h8q6 0 12 12v52l4 8l8 -4h4l8 4l4 -8v-48q-5 -40 -40 -40h-8q-36 0 -40 48v40q1 8 8 8zM864 1008h8l24 -4q8 4 12 4q8 -4 12 -4q8 4 12 4v-20q0 -8 -8 -8q-7 4 -16 4v-4l-8 4h-12v-12h44v-16q0 -8 -8 -8h-36v-12h12q4 0 4 4l8 -4h8
q4 0 4 4q8 -4 12 -4v-20h-20l-24 -4q-7 4 -20 4v-4q-8 4 -12 4v72zM952 1008l28 -4v4q48 -7 48 -32q-3 -28 -20 -28l24 -32l-8 -4h-16q-3 0 -32 32h-4v-16l4 -8l-8 -4h-24v4q0 8 4 8l-4 28l4 40h-4q4 12 8 12zM1040 1004h72v-16q0 -8 -8 -8h-36v-8h40v-24h-40v-12h44v-16
q0 -8 -8 -8h-56q-8 0 -8 8v84zM1124 1004h48q36 0 40 -48q0 -42 -64 -44h-16q-8 0 -8 8v84zM676 956q6 -20 28 -20q20 6 20 28q-8 18 -16 20h-16q-16 -6 -16 -28zM972 984v-20h20q8 0 8 8v4q0 8 -8 8h-20zM1152 980v-44h4q22 0 28 16v16q0 6 -12 12h-20zM308 680v-8
q13 -68 64 -68h40q20 10 20 32v16q-16 0 -16 20q0 40 76 40q0 5 16 8v-4q-75 -248 -96 -252h-8q-9 0 -12 20q0 7 20 44q-20 36 -52 36h-12q-64 -9 -64 -64v-8q0 -58 72 -84q21 -4 40 -4h16q125 0 164 172q24 53 84 228q-19 12 -52 12h-24q-31 0 -60 -36q-51 -22 -156 -36
q-60 -21 -60 -64zM896 460l-4 8v12q0 19 32 136q-10 40 -44 40h-28q-17 0 -64 -20v8l4 8q-16 8 -44 8h-40q-35 0 -48 -44q-64 -198 -64 -208q24 -12 68 -12q60 0 60 60q41 132 56 132q12 0 12 4q16 -6 16 -12q-36 -93 -36 -124v-8q0 -39 56 -48q40 0 108 36l-8 -24
q16 -16 56 -16q68 0 68 32q22 160 76 160h12q8 -1 8 -8v-4q0 -27 -52 -52l-4 -20q0 -104 84 -104q87 0 144 108l-16 12h-8q-35 -60 -80 -60h-8q-24 10 -24 36v16l56 36q20 37 20 56v8q0 41 -60 48q-16 0 -84 -24q0 4 -4 4q60 154 60 160q-19 12 -60 12h-36q-30 0 -40 -68
q-11 -12 -80 -236q-45 -48 -60 -48zM308 312v-4q203 -236 476 -236h32q251 0 448 204q24 28 24 32q-502 4 -748 4h-232zM616 244h40v-8h-32v-20h32v-8h-32v-16h28q8 -1 8 -8h-44v60zM680 244h20q6 0 12 -12h-4l-24 4q-8 -1 -8 -8v-8q40 -4 40 -20q-6 -20 -28 -20
q-24 8 -24 16l8 4q0 -9 20 -12l16 8q0 12 -40 20v16q0 6 12 12zM716 244h48v-8h-20v-52h-8v52h-20v8zM816 244q12 0 24 -16q0 -19 -40 -24l-4 -8q1 -8 8 -8h32v-8h-28l-20 4v4q0 28 28 28h12q0 4 4 12l-12 8h-12l-16 -12v8q4 12 24 12zM872 244h4q6 0 16 -16v-32
q-6 -16 -28 -16q-20 6 -20 28v8q0 28 28 28zM920 244v-56h12q0 -8 -8 -8h-20v8h8v44h-8v8q9 0 16 4zM940 244h36q8 -1 8 -8h-36v-16h24q8 -2 16 -20q-6 -20 -28 -20q-20 3 -20 12v8l16 -12h12q6 0 12 12q0 6 -12 12h-28v32zM852 224v-24q0 -6 12 -12h8q6 0 12 12v24
q0 6 -12 12h-8q-6 0 -12 -12z" />
    <glyph glyph-name=".null" horiz-adv-x="0" 
 />
    <glyph glyph-name=".null" horiz-adv-x="0" 
 />
    <glyph glyph-name="nonmarkingreturn" horiz-adv-x="508" 
 />
    <glyph glyph-name="space" unicode=" " horiz-adv-x="508" 
 />
    <glyph glyph-name="space" unicode="&#xa0;" horiz-adv-x="508" 
 />
    <glyph glyph-name="exclam" unicode="!" horiz-adv-x="400" 
d="M300 0h-200v200h200v-200zM300 400h-200v1000h200v-1000z" />
    <glyph glyph-name="quotedbl" unicode="&#x22;" horiz-adv-x="700" 
d="M300 1000h-200v400h200v-400zM600 1000h-200v400h200v-400z" />
    <glyph glyph-name="numbersign" unicode="#" 
d="M400 1100h300v300h200v-300h100v-200h-100v-400h100v-200h-100v-300h-200v300h-300v-300h-200v300h-100v200h100v400h-100v200h100v300h200v-300zM700 900h-300v-400h300v400z" />
    <glyph glyph-name="dollar" unicode="$" 
d="M650 594v-388q51 12 92 53q58 58 58 141t-58 142q-41 40 -92 52zM450 0h-350v200h350v403q-134 15 -233 114q-117 117 -117 283t117 283q99 99 233 114v203h200v-200h350v-200h-350v-403q134 -15 233 -114q117 -117 117 -283t-117 -283q-99 -99 -233 -114v-203h-200v200z
M450 806v388q-51 -12 -91 -52q-59 -59 -59 -142t59 -141q40 -41 91 -53z" />
    <glyph glyph-name="percent" unicode="%" 
d="M350 1100q21 0 35.5 14.5t14.5 35.5t-14.5 35.5t-35.5 14.5t-35.5 -14.5t-14.5 -35.5t14.5 -35.5t35.5 -14.5zM750 200q21 0 35.5 14.5t14.5 35.5t-14.5 35.5t-35.5 14.5t-35.5 -14.5t-14.5 -35.5t14.5 -35.5t35.5 -14.5zM0 0l852 1400h248l-852 -1400h-248zM750 0
q-104 0 -177 73t-73 177t73 177t177 73t177 -73t73 -177t-73 -177t-177 -73zM350 900q-104 0 -177 73t-73 177t73 177t177 73t177 -73t73 -177t-73 -177t-177 -73z" />
    <glyph glyph-name="ampersand" unicode="&#x26;" 
d="M500 800h300v200h200v-1000h-500q-166 0 -283 117t-117 283t117 283q9 9 18 17q-9 8 -18 17q-117 117 -117 283t117 283t283 117h200v-200h-200q-83 0 -141.5 -58.5t-58.5 -141.5t58.5 -141.5t141.5 -58.5zM800 600h-300q-83 0 -141.5 -58.5t-58.5 -141.5t58.5 -141.5
t141.5 -58.5h300v400z" />
    <glyph glyph-name="quotesingle" unicode="'" horiz-adv-x="400" 
d="M300 1000h-200v400h200v-400z" />
    <glyph glyph-name="parenleft" unicode="(" horiz-adv-x="700" 
d="M300 400q0 -124 88 -212t212 -88v-200q-207 0 -353.5 146.5t-146.5 353.5v600q0 207 146.5 353.5t353.5 146.5v-200q-124 0 -212 -88t-88 -212v-600z" />
    <glyph glyph-name="parenright" unicode=")" horiz-adv-x="700" 
d="M400 1000q0 124 -88 212t-212 88v200q207 0 353.5 -146.5t146.5 -353.5v-600q0 -207 -146.5 -353.5t-353.5 -146.5v200q124 0 212 88t88 212v600z" />
    <glyph glyph-name="asterisk" unicode="*" horiz-adv-x="400" 
d="M300 1000h-200v400h200v-400z" />
    <glyph glyph-name="plus" unicode="+" horiz-adv-x="900" 
d="M550 800h250v-200h-250v-250h-200v250h-250v200h250v250h200v-250z" />
    <glyph glyph-name="comma" unicode="," horiz-adv-x="400" 
d="M300 -200h-200v400h200v-400z" />
    <glyph glyph-name="hyphen" unicode="-" horiz-adv-x="900" 
d="M800 600h-700v200h700v-200z" />
    <glyph glyph-name="hyphen" unicode="&#xad;" horiz-adv-x="900" 
d="M800 600h-700v200h700v-200z" />
    <glyph glyph-name="period" unicode="." horiz-adv-x="400" 
d="M300 0h-200v200h200v-200z" />
    <glyph glyph-name="slash" unicode="/" 
d="M0 0l852 1400h248l-852 -1400h-248z" />
    <glyph glyph-name="zero" unicode="0" horiz-adv-x="1200" 
d="M300 500q0 -124 88 -212t212 -88t212 88t88 212v400q0 124 -88 212t-212 88t-212 -88t-88 -212v-400zM1100 500q0 -207 -146.5 -353.5t-353.5 -146.5t-353.5 146.5t-146.5 353.5v400q0 207 146.5 353.5t353.5 146.5t353.5 -146.5t146.5 -353.5v-400z" />
    <glyph glyph-name="one" unicode="1" horiz-adv-x="600" 
d="M300 1200h-200v200h400v-1400h-200v1200z" />
    <glyph glyph-name="two" unicode="2" 
d="M600 1200h-500v200h500q166 0 283 -117t117 -283t-117 -283t-283 -117h-100q-83 0 -141.5 -58.5t-58.5 -141.5v-200h700v-200h-900v400q0 166 117 283t283 117h100q83 0 141.5 58.5t58.5 141.5t-58.5 141.5t-141.5 58.5z" />
    <glyph glyph-name="three" unicode="3" 
d="M600 0h-500v200h500q83 0 141.5 58.5t58.5 141.5t-58.5 141.5t-141.5 58.5h-400v200h400q83 0 141.5 58.5t58.5 141.5t-58.5 141.5t-141.5 58.5h-500v200h500q166 0 283 -117t117 -283t-117 -283q-9 -9 -18 -17q9 -8 18 -17q117 -117 117 -283t-117 -283t-283 -117z" />
    <glyph glyph-name="four" unicode="4" 
d="M100 1400h200v-800h400v800h200v-800h100v-200h-100v-400h-200v400h-600v1000z" />
    <glyph glyph-name="five" unicode="5" 
d="M600 0h-500v200h500q83 0 141.5 58.5t58.5 141.5t-58.5 141.5t-141.5 58.5h-500v800h900v-200h-700v-400h300q166 0 283 -117t117 -283t-117 -283t-283 -117z" />
    <glyph glyph-name="six" unicode="6" 
d="M500 200h100q83 0 141.5 58.5t58.5 141.5t-58.5 141.5t-141.5 58.5h-100q-83 0 -141.5 -58.5t-58.5 -141.5t58.5 -141.5t141.5 -58.5zM300 748q89 52 200 52h100q166 0 283 -117t117 -283t-117 -283t-283 -117h-100q-166 0 -283 117t-117 283v600q0 166 117 283t283 117
h100q166 0 283 -117t117 -283h-200q0 83 -58.5 141.5t-141.5 58.5h-100q-83 0 -141.5 -58.5t-58.5 -141.5v-252z" />
    <glyph glyph-name="seven" unicode="7" 
d="M730 1200h-630v200h1000l-852 -1400h-248z" />
    <glyph glyph-name="eight" unicode="8" 
d="M600 1200h-100q-83 0 -141.5 -58.5t-58.5 -141.5t58.5 -141.5t141.5 -58.5h100q83 0 141.5 58.5t58.5 141.5t-58.5 141.5t-141.5 58.5zM500 200h100q83 0 141.5 58.5t58.5 141.5t-58.5 141.5t-141.5 58.5h-100q-83 0 -141.5 -58.5t-58.5 -141.5t58.5 -141.5t141.5 -58.5z
M600 0h-100q-166 0 -283 117t-117 283t117 283q9 9 18 17q-9 8 -18 17q-117 117 -117 283t117 283t283 117h100q166 0 283 -117t117 -283t-117 -283q-9 -9 -18 -17q9 -8 18 -17q117 -117 117 -283t-117 -283t-283 -117z" />
    <glyph glyph-name="nine" unicode="9" 
d="M600 1200h-100q-83 0 -141.5 -58.5t-58.5 -141.5t58.5 -141.5t141.5 -58.5h100q83 0 141.5 58.5t58.5 141.5t-58.5 141.5t-141.5 58.5zM800 652q-89 -52 -200 -52h-100q-166 0 -283 117t-117 283t117 283t283 117h100q166 0 283 -117t117 -283v-600q0 -166 -117 -283
t-283 -117h-100q-166 0 -283 117t-117 283h200q0 -83 58.5 -141.5t141.5 -58.5h100q83 0 141.5 58.5t58.5 141.5v252z" />
    <glyph glyph-name="colon" unicode=":" horiz-adv-x="400" 
d="M300 0h-200v200h200v-200zM300 824h-200v200h200v-200z" />
    <glyph glyph-name="semicolon" unicode=";" horiz-adv-x="400" 
d="M300 -200h-200v400h200v-400zM300 824h-200v200h200v-200z" />
    <glyph glyph-name="semicolon" unicode="&#x37e;" horiz-adv-x="400" 
d="M300 -200h-200v400h200v-400zM300 824h-200v200h200v-200z" />
    <glyph glyph-name="less" unicode="&#x3c;" horiz-adv-x="1200" 
d="M1100 374v-211l-1158 537l1158 537v-211l-695 -326z" />
    <glyph glyph-name="equal" unicode="=" horiz-adv-x="900" 
d="M800 800h-700v200h700v-200zM800 400h-700v200h700v-200z" />
    <glyph glyph-name="greater" unicode="&#x3e;" horiz-adv-x="1200" 
d="M100 374l695 326l-695 326v211l1158 -537l-1158 -537v211z" />
    <glyph glyph-name="question" unicode="?" 
d="M300 0h-200v200h200v-200zM600 1200h-500v200h500q166 0 283 -117t117 -283t-117 -283t-283 -117h-300v-200h-200v400h500q83 0 141.5 58.5t58.5 141.5t-58.5 141.5t-141.5 58.5z" />
    <glyph glyph-name="at" unicode="@" horiz-adv-x="1200" 
d="M396 280q86 -80 204 -80t204 80l-204 435zM900 900q0 124 -88 212t-212 88t-212 -88t-88 -212v-369l300 647l300 -647v369zM1100 500q0 -207 -146.5 -353.5t-353.5 -146.5t-353.5 146.5t-146.5 353.5v400q0 207 146.5 353.5t353.5 146.5t353.5 -146.5t146.5 -353.5v-400z
" />
    <glyph glyph-name="A" unicode="A" 
d="M738 400l-188 545l-188 -545h376zM807 200h-514l-69 -200h-211l537 1558l537 -1558h-211z" />
    <glyph glyph-name="B" unicode="B" 
d="M300 1200v-400h300q83 0 141.5 58.5t58.5 141.5t-58.5 141.5t-141.5 58.5h-300zM600 0h-500v1400h500q166 0 283 -117t117 -283t-117 -283q-9 -9 -18 -17q9 -8 18 -17q117 -117 117 -283t-117 -283t-283 -117zM300 200h300q83 0 141.5 58.5t58.5 141.5t-58.5 141.5
t-141.5 58.5h-300v-400z" />
    <glyph glyph-name="C" unicode="C" horiz-adv-x="1000" 
d="M600 1400h300v-200h-300q-124 0 -212 -88t-88 -212v-400q0 -124 88 -212t212 -88h300v-200h-300q-207 0 -353.5 146.5t-146.5 353.5v400q0 207 146.5 353.5t353.5 146.5z" />
    <glyph glyph-name="D" unicode="D" 
d="M1000 500q0 -207 -146.5 -353.5t-353.5 -146.5h-400v1400h400q207 0 353.5 -146.5t146.5 -353.5v-400zM500 200q124 0 212 88t88 212v400q0 124 -88 212t-212 88h-200v-1000h200z" />
    <glyph glyph-name="E" unicode="E" horiz-adv-x="1000" 
d="M300 200h600v-200h-800v1400h800v-200h-600v-400h600v-200h-600v-400z" />
    <glyph glyph-name="F" unicode="F" horiz-adv-x="1000" 
d="M900 1400v-200h-600v-400h600v-200h-600v-600h-200v1400h800z" />
    <glyph glyph-name="G" unicode="G" 
d="M600 1400h400v-200h-400q-124 0 -212 -88t-88 -212v-400q0 -124 88 -212t212 -88h200v400h-200v200h400v-800h-400q-207 0 -353.5 146.5t-146.5 353.5v400q0 207 146.5 353.5t353.5 146.5z" />
    <glyph glyph-name="H" unicode="H" 
d="M300 600v-600h-200v1400h200v-600h500v600h200v-1400h-200v600h-500z" />
    <glyph glyph-name="I" unicode="I" horiz-adv-x="400" 
d="M300 0h-200v1400h200v-1400z" />
    <glyph glyph-name="J" unicode="J" horiz-adv-x="1000" 
d="M400 0h-300v200h300q124 0 212 88t88 212v700h-300v200h500v-900q0 -207 -146.5 -353.5t-353.5 -146.5z" />
    <glyph glyph-name="K" unicode="K" 
d="M315 600h-15v-600h-200v1400h200v-600h15l585 600h282l-682 -700l682 -700h-282z" />
    <glyph glyph-name="L" unicode="L" horiz-adv-x="1000" 
d="M300 200h600v-200h-800v1400h200v-1200z" />
    <glyph glyph-name="M" unicode="M" horiz-adv-x="1200" 
d="M300 959v-959h-200v1441l500 -500l500 500v-1441h-200v959l-300 -300z" />
    <glyph glyph-name="N" unicode="N" 
d="M300 866v-866h-200v1491l700 -957v866h200v-1491z" />
    <glyph glyph-name="O" unicode="O" horiz-adv-x="1200" 
d="M300 500q0 -124 88 -212t212 -88t212 88t88 212v400q0 124 -88 212t-212 88t-212 -88t-88 -212v-400zM1100 500q0 -207 -146.5 -353.5t-353.5 -146.5t-353.5 146.5t-146.5 353.5v400q0 207 146.5 353.5t353.5 146.5t353.5 -146.5t146.5 -353.5v-400z" />
    <glyph glyph-name="P" unicode="P" 
d="M300 1200v-400h300q83 0 141.5 58.5t58.5 141.5t-58.5 141.5t-141.5 58.5h-300zM100 1400h500q166 0 283 -117t117 -283t-117 -283t-283 -117h-300v-600h-200v1400z" />
    <glyph glyph-name="Q" unicode="Q" horiz-adv-x="1200" 
d="M1100 500q0 -139 -67 -251l249 -249h-282l-100 100q-129 -100 -300 -100q-207 0 -353.5 146.5t-146.5 353.5v400q0 207 146.5 353.5t353.5 146.5t353.5 -146.5t146.5 -353.5v-400zM883 399q17 47 17 101v400q0 124 -88 212t-212 88t-212 -88t-88 -212v-400
q0 -124 88 -212t212 -88q87 0 157 43l-357 357h282z" />
    <glyph glyph-name="R" unicode="R" 
d="M300 1200v-400h300q83 0 141.5 58.5t58.5 141.5t-58.5 141.5t-141.5 58.5h-300zM100 1400h500q166 0 283 -117t117 -283t-117 -283t-283 -117h-18l600 -600h-282l-600 600v-600h-200v1400z" />
    <glyph glyph-name="S" unicode="S" 
d="M600 0h-500v200h500q83 0 141.5 58.5t58.5 141.5t-58.5 141.5t-141.5 58.5h-100q-166 0 -283 117t-117 283t117 283t283 117h500v-200h-500q-83 0 -141.5 -58.5t-58.5 -141.5t58.5 -141.5t141.5 -58.5h100q166 0 283 -117t117 -283t-117 -283t-283 -117z" />
    <glyph glyph-name="T" unicode="T" horiz-adv-x="1000" 
d="M900 1400v-200h-300v-1200h-200v1200h-300v200h800z" />
    <glyph glyph-name="U" unicode="U" 
d="M100 450v950h200v-950q0 -104 73 -177t177 -73t177 73t73 177v950h200v-950q0 -186 -132 -318t-318 -132t-318 132t-132 318z" />
    <glyph glyph-name="V" unicode="V" 
d="M876 1400h211l-537 -1558l-537 1558h211l326 -945z" />
    <glyph glyph-name="W" unicode="W" horiz-adv-x="1500" 
d="M750 1035l126 365h211l-231 -671l94 -274l326 945h211l-537 -1558l-200 580l-200 -580l-537 1558h211l326 -945l94 274l-231 671h211z" />
    <glyph glyph-name="X" unicode="X" 
d="M550 501l-300 -501h-238l419 700l-419 700h238l300 -501l300 501h238l-419 -700l419 -700h-238z" />
    <glyph glyph-name="Y" unicode="Y" 
d="M450 668l-438 732h238l300 -501l300 501h238l-438 -732v-668h-200v668z" />
    <glyph glyph-name="Z" unicode="Z" 
d="M730 1200h-630v200h1000l-730 -1200h630v-200h-1000z" />
    <glyph glyph-name="bracketleft" unicode="[" horiz-adv-x="700" 
d="M300 100h300v-200h-500v1600h500v-200h-300v-1200z" />
    <glyph glyph-name="backslash" unicode="\" 
d="M1100 0h-248l-852 1400h248z" />
    <glyph glyph-name="bracketright" unicode="]" horiz-adv-x="700" 
d="M400 1300h-300v200h500v-1600h-500v200h300v1200z" />
    <glyph glyph-name="asciicircum" unicode="^" horiz-adv-x="400" 
d="M300 1000h-200v400h200v-400z" />
    <glyph glyph-name="underscore" unicode="_" horiz-adv-x="1000" 
d="M900 0h-800v200h800v-200z" />
    <glyph glyph-name="grave" unicode="`" horiz-adv-x="400" 
d="M300 1000h-200v400h200v-400z" />
    <glyph glyph-name="a" unicode="a" 
d="M271 100l-47 -100h-211l537 1158l537 -1158h-211l-47 100h-558zM735 300l-185 395l-185 -395h370z" />
    <glyph glyph-name="b" unicode="b" 
d="M300 200h400q41 0 70.5 29.5t29.5 70.5t-29.5 70.5t-70.5 29.5h-400v-200zM700 800h-400v-200h400q41 0 70.5 29.5t29.5 70.5t-29.5 70.5t-70.5 29.5zM700 0h-600v1000h600q124 0 212 -88t88 -212q0 -116 -77 -200q77 -84 77 -200q0 -124 -88 -212t-212 -88z" />
    <glyph glyph-name="c" unicode="c" horiz-adv-x="1000" 
d="M600 1000h300v-200h-300q-124 0 -212 -88t-88 -212t88 -212t212 -88h300v-200h-300q-207 0 -353.5 146.5t-146.5 353.5t146.5 353.5t353.5 146.5z" />
    <glyph glyph-name="d" unicode="d" 
d="M500 1000q207 0 353.5 -146.5t146.5 -353.5t-146.5 -353.5t-353.5 -146.5h-400v1000h400zM500 200q124 0 212 88t88 212t-88 212t-212 88h-200v-600h200z" />
    <glyph glyph-name="e" unicode="e" horiz-adv-x="1000" 
d="M300 200h600v-200h-800v1000h800v-200h-600v-200h600v-200h-600v-200z" />
    <glyph glyph-name="f" unicode="f" horiz-adv-x="1000" 
d="M900 1000v-200h-600v-200h600v-200h-600v-400h-200v1000h800z" />
    <glyph glyph-name="g" unicode="g" 
d="M600 1000h400v-200h-400q-124 0 -212 -88t-88 -212t88 -212t212 -88h200v200h-200v200h400v-600h-400q-207 0 -353.5 146.5t-146.5 353.5t146.5 353.5t353.5 146.5z" />
    <glyph glyph-name="h" unicode="h" 
d="M300 400v-400h-200v1000h200v-400h500v400h200v-1000h-200v400h-500z" />
    <glyph glyph-name="i" unicode="i" horiz-adv-x="400" 
d="M300 0h-200v1000h200v-1000z" />
    <glyph glyph-name="j" unicode="j" horiz-adv-x="1000" 
d="M400 0h-300v200h300q124 0 212 88t88 212v300h-300v200h500v-500q0 -207 -146.5 -353.5t-353.5 -146.5z" />
    <glyph glyph-name="k" unicode="k" 
d="M300 400v-400h-200v1000h200v-400h100l400 400h282l-500 -500l500 -500h-282l-400 400h-100z" />
    <glyph glyph-name="l" unicode="l" horiz-adv-x="1000" 
d="M300 200h600v-200h-800v1000h200v-800z" />
    <glyph glyph-name="m" unicode="m" horiz-adv-x="1200" 
d="M300 559v-559h-200v1041l500 -500l500 500v-1041h-200v559l-300 -300z" />
    <glyph glyph-name="n" unicode="n" 
d="M300 609v-609h-200v1091l700 -700v609h200v-1091z" />
    <glyph glyph-name="o" unicode="o" horiz-adv-x="1200" 
d="M600 200q124 0 212 88t88 212t-88 212t-212 88t-212 -88t-88 -212t88 -212t212 -88zM600 0q-207 0 -353.5 146.5t-146.5 353.5t146.5 353.5t353.5 146.5t353.5 -146.5t146.5 -353.5t-146.5 -353.5t-353.5 -146.5z" />
    <glyph glyph-name="p" unicode="p" 
d="M700 1000q124 0 212 -88t88 -212t-88 -212t-212 -88h-400v-400h-200v1000h600zM700 800h-400v-200h400q41 0 70.5 29.5t29.5 70.5t-29.5 70.5t-70.5 29.5z" />
    <glyph glyph-name="q" unicode="q" horiz-adv-x="1200" 
d="M868 364q32 61 32 136q0 124 -88 212t-212 88t-212 -88t-88 -212t88 -212t212 -88q67 0 124 26l-274 274h282zM871 79q-119 -79 -271 -79q-207 0 -353.5 146.5t-146.5 353.5t146.5 353.5t353.5 146.5t353.5 -146.5t146.5 -353.5q0 -159 -86 -282l218 -218h-282z" />
    <glyph glyph-name="r" unicode="r" 
d="M700 1000q124 0 212 -88t88 -212t-88 -212t-212 -88h-18l400 -400h-282l-500 500v-500h-200v1000h600zM700 800h-400v-200h400q41 0 70.5 29.5t29.5 70.5t-29.5 70.5t-70.5 29.5z" />
    <glyph glyph-name="s" unicode="s" 
d="M700 0h-600v200h600q41 0 70.5 29.5t29.5 70.5t-29.5 70.5t-70.5 29.5h-300q-124 0 -212 88t-88 212t88 212t212 88h600v-200h-600q-41 0 -70.5 -29.5t-29.5 -70.5t29.5 -70.5t70.5 -29.5h300q124 0 212 -88t88 -212t-88 -212t-212 -88z" />
    <glyph glyph-name="t" unicode="t" horiz-adv-x="1000" 
d="M900 1000v-200h-300v-800h-200v800h-300v200h800z" />
    <glyph glyph-name="u" unicode="u" 
d="M100 450v550h200v-550q0 -104 73 -177t177 -73t177 73t73 177v550h200v-550q0 -186 -132 -318t-318 -132t-318 132t-132 318z" />
    <glyph glyph-name="v" unicode="v" 
d="M876 1000h211l-537 -1158l-537 1158h211l326 -695z" />
    <glyph glyph-name="w" unicode="w" horiz-adv-x="1200" 
d="M100 1000h200v-559l300 300l300 -300v559h200v-1041l-500 500l-500 -500v1041z" />
    <glyph glyph-name="x" unicode="x" 
d="M550 342l-280 -342h-258l409 500l-409 500h258l280 -342l280 342h258l-409 -500l409 -500h-258z" />
    <glyph glyph-name="y" unicode="y" 
d="M450 464l-438 536h258l280 -342l280 342h258l-438 -536v-464h-200v464z" />
    <glyph glyph-name="z" unicode="z" 
d="M666 800h-566v200h988l-654 -800h566v-200h-988z" />
    <glyph glyph-name="braceleft" unicode="{" horiz-adv-x="900" 
d="M300 1000q0 207 146.5 353.5t353.5 146.5v-200q-124 0 -212 -88t-88 -212q0 -200 -100 -300q100 -100 100 -300q0 -124 88 -212t212 -88v-200q-207 0 -353.5 146.5t-146.5 353.5q0 200 -200 200v200q200 0 200 200z" />
    <glyph glyph-name="bar" unicode="|" horiz-adv-x="400" 
d="M300 0h-200v1400h200v-1400z" />
    <glyph glyph-name="braceright" unicode="}" horiz-adv-x="900" 
d="M600 400q0 -207 -146.5 -353.5t-353.5 -146.5v200q124 0 212 88t88 212q0 200 100 300q-100 100 -100 300q0 124 -88 212t-212 88v200q207 0 353.5 -146.5t146.5 -353.5q0 -200 200 -200v-200q-200 0 -200 -200z" />
    <glyph glyph-name="asciitilde" unicode="~" horiz-adv-x="900" 
d="M800 600h-700v200h700v-200z" />
    </font>
</defs>
</svg>
